<?xml version="1.0" encoding="utf-8"?>
<!-- Generator: Adobe Illustrator 18.0.0, SVG Export Plug-In . SVG Version: 6.00 Build 0)  -->
<!DOCTYPE svg PUBLIC "-//W3C//DTD SVG 1.1//EN" "http://www.w3.org/Graphics/SVG/1.1/DTD/svg11.dtd">
<svg version="1.1" id="Layer_1" xmlns="http://www.w3.org/2000/svg" xmlns:xlink="http://www.w3.org/1999/xlink" x="0px" y="0px"
	 viewBox="0 0 226 81" enable-background="new 0 0 226 81" xml:space="preserve">
<g>
	<g>
		<path fill="#54A300" d="M20.1,5.8h-1.8l0.5,18.9h-2.1V5.8h-1.6v19.1h-1.8V5.8h-1.7v19.1H9.5l0.6-19.1H8.5l-2,16.1c0,0,0,0.6,0,0.8
			c0,2.5,1.1,4.7,2.9,6.2c5.9,6.7,1.9,13.6,1.9,15.2c0,1.8,0,29.5,0,29.5c0,0,0,0,0,0.1c0,1.7,1.4,3.1,3,3.1c1.7,0,3-1.4,3-3.1
			c0,0,0,0,0-0.1h0c0,0,0-27.4,0-29.5c0-1.9-3.4-9.8,2.3-15.6c0,0,0,0,0,0c1.4-1.3,2.3-3.2,2.4-5.2c0-0.1,0-0.5,0-0.5L20.1,5.8z
			 M20.1,5.8"/>
	</g>
	<g>
		<path fill="#54A300" d="M35.8,4.6h-0.2C29,4.7,25.3,11,25.3,17.9c0,6.9,4.2,11.8,7.8,12.9c2,2.8,0.7,9.4-0.7,13.2v29.6
			c0,0,0,0,0,0.1c0,1.7,1.4,3.1,3.1,3.1h0.5c1.7,0,3.1-1.4,3.1-3.1c0,0,0,0,0-0.1V44c-1.4-3.8-2.7-10.4-0.7-13.2
			c3.6-1.1,7.8-6,7.8-12.9C46.1,11,42.4,4.7,35.8,4.6L35.8,4.6z M32.3,28.1c-0.4-0.3-0.9-0.8-1.5-1.5c-0.6-0.7-1.1-1.5-1.7-2.4
			c-0.3-0.5-0.5-1-0.7-1.5c-0.2-0.6-0.4-1.1-0.5-1.7c-0.2-1.2-0.2-2.4-0.1-3.5c0.1-1.1,0.3-2.1,0.6-2.9c0.2-0.8,0.5-1.5,0.8-2
			c0.2-0.5,0.4-0.7,0.4-0.7s0,0.3-0.1,0.8c0,0.5,0,1.2-0.1,2c0,1.6-0.2,3.9,0.2,5.9c0.1,0.5,0.2,1,0.4,1.5c0.2,0.5,0.3,1,0.5,1.5
			c0.4,0.9,0.8,1.8,1.1,2.6c0.3,0.8,0.7,1.4,0.9,1.8c0.2,0.4,0.4,0.6,0.5,0.6C33,28.5,32.7,28.5,32.3,28.1L32.3,28.1z M32.3,28.1"/>
	</g>
</g>
<g>
	<path fill="#313131" d="M58.2,35.3V5.3h21.6v5.5h-16v8.2H79v5.2H63.9v11.1H58.2z"/>
	<path fill="#313131" d="M114.7,20.4c-0.1,7.8-4.9,15.6-15.4,15.6c-10.6,0-15.5-7.6-15.5-15.5c0-7.9,5.1-15.9,15.5-15.9
		C109.6,4.6,114.7,12.6,114.7,20.4z M89.3,20.6c0.1,4.9,2.8,10.2,9.9,10.2c7.1,0,9.8-5.3,9.8-10.3c0.1-5.1-2.8-10.8-9.8-10.8
		C92.1,9.8,89.2,15.5,89.3,20.6z"/>
	<path fill="#313131" d="M148.8,20.4C148.8,28.2,144,36,133.4,36c-10.6,0-15.5-7.6-15.5-15.5c0-7.9,5.1-15.9,15.5-15.9
		C143.8,4.6,148.9,12.6,148.8,20.4z M123.5,20.6c0.1,4.9,2.8,10.2,9.9,10.2c7.1,0,9.8-5.3,9.8-10.3c0.1-5.1-2.8-10.8-9.8-10.8
		C126.3,9.8,123.4,15.5,123.5,20.6z"/>
	<path fill="#313131" d="M179.9,20c0.1,7.6-4.5,15.3-15,15.3c-3.7,0-8.1,0-11.8,0V5.2c3.7,0,8.1,0,11.8,0
		C175.2,5.2,179.8,12.6,179.9,20z M158.7,29.9h6.2c6.8,0,9.5-5,9.4-9.9c-0.1-4.7-2.9-9.4-9.4-9.4h-6.2V29.9z"/>
	<path fill="#313131" d="M184.6,35.3V5.2h5.6v30.1H184.6z"/>
	<path fill="#313131" d="M218.4,35.3h-22.5c0-10,0-20.1,0-30.1h22.5v5.5h-16.9v6.9h16.3v5.3h-16.3v6.8h16.9V35.3z"/>
</g>
<g>
	<path fill="#54A300" d="M87.8,61.2c-0.1,7.8-4.9,15.6-15.4,15.6c-10.6,0-15.5-7.6-15.5-15.5c0-7.9,5.1-15.9,15.5-15.9
		C82.7,45.4,87.9,53.3,87.8,61.2z M62.5,61.3c0.1,4.9,2.8,10.2,9.9,10.2c7.1,0,9.8-5.3,9.8-10.3c0.1-5.1-2.8-10.8-9.8-10.8
		C65.3,50.5,62.3,56.2,62.5,61.3z"/>
	<path fill="#54A300" d="M122.5,76.1h-6.8L107,66h-5.5v10.1h-5.7V45.9c4.8,0,9.5,0,14.3,0c7.1,0,10.8,4.8,10.8,10
		c0,4.1-1.9,8.3-7.6,9.5l9.1,10.3V76.1z M101.5,51.2v9.6h8.6c3.6,0,5.2-2.4,5.2-4.8c0-2.4-1.6-4.8-5.2-4.8H101.5z"/>
	<path fill="#54A300" d="M155.1,60.7c0.1,7.6-4.5,15.3-15,15.3c-3.7,0-8.1,0-11.8,0V46c3.7,0,8.1,0,11.8,0
		C150.4,46,155,53.3,155.1,60.7z M133.9,70.6h6.2c6.8,0,9.5-5,9.4-9.9c-0.1-4.7-2.9-9.4-9.4-9.4h-6.2V70.6z"/>
	<path fill="#54A300" d="M185.1,76.1h-22.5c0-10,0-20.1,0-30.1h22.5v5.5h-16.9v6.9h16.3v5.3h-16.3v6.8h16.9V76.1z"/>
	<path fill="#54A300" d="M220,76.1h-6.8L204.5,66h-5.5v10.1h-5.7V45.9c4.8,0,9.5,0,14.3,0c7.1,0,10.8,4.8,10.8,10
		c0,4.1-1.9,8.3-7.6,9.5l9.1,10.3V76.1z M199.1,51.2v9.6h8.6c3.6,0,5.2-2.4,5.2-4.8c0-2.4-1.6-4.8-5.2-4.8H199.1z"/>
</g>
</svg>
