<?xml version="1.0" encoding="UTF-8"?>
<svg width="27px" height="27px" viewBox="0 0 27 27" version="1.1" xmlns="http://www.w3.org/2000/svg" xmlns:xlink="http://www.w3.org/1999/xlink">
    <!-- Generator: Sketch 48.2 (47327) - http://www.bohemiancoding.com/sketch -->
    <title>search</title>
    <desc>Created with Sketch.</desc>
    <defs>
        <path d="M22.1856992,20.3590067 L28.0383463,26.2116537 C28.5427735,26.716081 28.5427735,27.533919 28.0383463,28.0383463 C27.533919,28.5427735 26.716081,28.5427735 26.2116537,28.0383463 L20.3590067,22.1856992 C18.489587,23.6611328 16.1288733,24.5416667 13.5625,24.5416667 C7.49887368,24.5416667 2.58333333,19.6261263 2.58333333,13.5625 C2.58333333,7.49887368 7.49887368,2.58333333 13.5625,2.58333333 C19.6261263,2.58333333 24.5416667,7.49887368 24.5416667,13.5625 C24.5416667,16.1288733 23.6611328,18.489587 22.1856992,20.3590067 Z M19.5813553,19.4160018 C21.0523805,17.9036849 21.9583333,15.8388908 21.9583333,13.5625 C21.9583333,8.92560929 18.1993907,5.16666667 13.5625,5.16666667 C8.92560929,5.16666667 5.16666667,8.92560929 5.16666667,13.5625 C5.16666667,18.1993907 8.92560929,21.9583333 13.5625,21.9583333 C15.8388908,21.9583333 17.9036849,21.0523805 19.4160018,19.5813553 C19.4407906,19.5516798 19.467119,19.5228551 19.4949871,19.4949871 C19.5228551,19.467119 19.5516798,19.4407906 19.5813553,19.4160018 Z" id="path-1"></path>
    </defs>
    <g id="шапка" stroke="none" stroke-width="1" fill="none" fill-rule="evenodd" transform="translate(-1381.000000, -17.000000)">
        <g id="search">
            <g transform="translate(1379.000000, 15.000000)">
                <mask id="mask-2" fill="white">
                    <use xlink:href="#path-1"></use>
                </mask>
                <use id="Combined-Shape" fill="#000000" fill-rule="nonzero" xlink:href="#path-1"></use>
                <g id="COLOR/-white" mask="url(#mask-2)" fill="#FFFFFF" fill-rule="evenodd">
                    <rect id="Rectangle" x="0" y="0" width="31" height="31"></rect>
                </g>
            </g>
        </g>
    </g>
</svg>